<?xml version="1.0" standalone="no"?><!-- Generator: Gravit.io --><svg xmlns="http://www.w3.org/2000/svg" xmlns:xlink="http://www.w3.org/1999/xlink" style="isolation:isolate" viewBox="0 0 48 32" width="48" height="32"><defs><clipPath id="_clipPath_ABQaPBAL4Ue5RqkPih8SBZAZq2fwUcyO"><rect width="48" height="32"/></clipPath></defs><g clip-path="url(#_clipPath_ABQaPBAL4Ue5RqkPih8SBZAZq2fwUcyO)"><clipPath id="_clipPath_rL8DV5jNhui8mBqhmZ6Birc7LTh4Lk6j"><rect x="0" y="0" width="48" height="32" transform="matrix(1,0,0,1,0,0)" fill="rgb(255,255,255)"/></clipPath><g clip-path="url(#_clipPath_rL8DV5jNhui8mBqhmZ6Birc7LTh4Lk6j)"><g id="Athletic_Icon_Inactive"><rect x="0" y="0" width="48" height="32" transform="matrix(1,0,0,1,0,0)" fill="none"/><g id="Group_4079"><path d=" M 31.105 12.846 L 32.422 11.529 L 31.105 10.212 L 27.817 13.5 L 19.923 5.606 L 23.211 2.318 L 21.894 1 L 20.577 2.317 L 19.26 1 L 17.288 2.971 L 15.971 1.654 L 14.654 2.971 L 15.971 4.288 L 14 6.26 L 15.317 7.577 L 14 8.894 L 15.317 10.211 L 18.606 6.923 L 26.5 14.817 L 23.212 18.105 L 24.529 19.422 L 25.846 18.105 L 27.163 19.422 L 29.134 17.451 L 30.451 18.768 L 31.768 17.451 L 30.451 16.134 L 32.422 14.163 L 31.105 12.846 Z " fill="rgb(96,96,96)"/><path d=" M 7.516 31 L 6.701 28.773 L 3.127 28.773 L 2.324 31 L 1.164 31 L 4.422 22.469 L 5.406 22.469 L 8.67 31 L 7.516 31 L 7.516 31 Z  M 4.914 23.857 L 3.467 27.848 L 6.367 27.848 L 4.914 23.857 L 4.914 23.857 Z  M 10.035 23.125 L 11.119 23.125 L 11.119 24.66 L 12.303 24.66 L 12.303 25.498 L 11.119 25.498 L 11.119 29.43 L 11.119 29.43 Q 11.119 29.676 11.178 29.825 L 11.178 29.825 L 11.178 29.825 Q 11.236 29.975 11.333 30.057 L 11.333 30.057 L 11.333 30.057 Q 11.43 30.139 11.556 30.165 L 11.556 30.165 L 11.556 30.165 Q 11.682 30.191 11.816 30.191 L 11.816 30.191 L 11.816 30.191 Q 11.951 30.191 12.101 30.165 L 12.101 30.165 L 12.101 30.165 Q 12.25 30.139 12.332 30.121 L 12.332 30.121 L 12.332 31 L 12.332 31 Q 12.203 31.035 11.998 31.076 L 11.998 31.076 L 11.998 31.076 Q 11.793 31.117 11.5 31.117 L 11.5 31.117 L 11.5 31.117 Q 11.201 31.117 10.935 31.032 L 10.935 31.032 L 10.935 31.032 Q 10.668 30.947 10.469 30.748 L 10.469 30.748 L 10.469 30.748 Q 10.27 30.549 10.152 30.224 L 10.152 30.224 L 10.152 30.224 Q 10.035 29.898 10.035 29.424 L 10.035 29.424 L 10.035 25.498 L 8.881 25.498 L 8.881 24.66 L 10.035 24.66 L 10.035 23.125 L 10.035 23.125 Z  M 14.652 22 L 14.652 25.428 L 14.652 25.428 Q 14.992 25.012 15.467 24.777 L 15.467 24.777 L 15.467 24.777 Q 15.941 24.543 16.527 24.543 L 16.527 24.543 L 16.527 24.543 Q 16.99 24.543 17.365 24.669 L 17.365 24.669 L 17.365 24.669 Q 17.74 24.795 18.004 25.073 L 18.004 25.073 L 18.004 25.073 Q 18.268 25.352 18.411 25.788 L 18.411 25.788 L 18.411 25.788 Q 18.555 26.225 18.555 26.846 L 18.555 26.846 L 18.555 31 L 17.471 31 L 17.471 26.834 L 17.471 26.834 Q 17.471 26.465 17.389 26.204 L 17.389 26.204 L 17.389 26.204 Q 17.307 25.943 17.146 25.779 L 17.146 25.779 L 17.146 25.779 Q 16.984 25.615 16.747 25.539 L 16.747 25.539 L 16.747 25.539 Q 16.51 25.463 16.199 25.463 L 16.199 25.463 L 16.199 25.463 Q 15.672 25.463 15.273 25.744 L 15.273 25.744 L 15.273 25.744 Q 14.875 26.025 14.652 26.482 L 14.652 26.482 L 14.652 31 L 13.568 31 L 13.568 22 L 14.652 22 L 14.652 22 Z  M 21.355 22 L 21.355 31 L 20.271 31 L 20.271 22 L 21.355 22 L 21.355 22 Z  M 25.721 31.117 L 25.721 31.117 L 25.721 31.117 Q 25.059 31.117 24.522 30.889 L 24.522 30.889 L 24.522 30.889 Q 23.986 30.66 23.605 30.253 L 23.605 30.253 L 23.605 30.253 Q 23.225 29.846 23.02 29.283 L 23.02 29.283 L 23.02 29.283 Q 22.814 28.721 22.814 28.053 L 22.814 28.053 L 22.814 27.807 L 22.814 27.807 Q 22.814 27.033 23.046 26.424 L 23.046 26.424 L 23.046 26.424 Q 23.277 25.814 23.664 25.398 L 23.664 25.398 L 23.664 25.398 Q 24.051 24.982 24.549 24.763 L 24.549 24.763 L 24.549 24.763 Q 25.047 24.543 25.586 24.543 L 25.586 24.543 L 25.586 24.543 Q 26.266 24.543 26.758 24.78 L 26.758 24.78 L 26.758 24.78 Q 27.25 25.018 27.569 25.434 L 27.569 25.434 L 27.569 25.434 Q 27.889 25.85 28.041 26.418 L 28.041 26.418 L 28.041 26.418 Q 28.193 26.986 28.193 27.654 L 28.193 27.654 L 28.193 28.141 L 23.898 28.141 L 23.898 28.141 Q 23.91 28.58 24.042 28.961 L 24.042 28.961 L 24.042 28.961 Q 24.174 29.342 24.417 29.623 L 24.417 29.623 L 24.417 29.623 Q 24.66 29.904 25.003 30.068 L 25.003 30.068 L 25.003 30.068 Q 25.346 30.232 25.779 30.232 L 25.779 30.232 L 25.779 30.232 Q 26.354 30.232 26.752 29.998 L 26.752 29.998 L 26.752 29.998 Q 27.15 29.764 27.449 29.377 L 27.449 29.377 L 28.111 29.893 L 28.111 29.893 Q 27.959 30.127 27.742 30.347 L 27.742 30.347 L 27.742 30.347 Q 27.525 30.566 27.235 30.739 L 27.235 30.739 L 27.235 30.739 Q 26.945 30.912 26.57 31.015 L 26.57 31.015 L 26.57 31.015 Q 26.195 31.117 25.721 31.117 Z  M 25.586 25.434 L 25.586 25.434 L 25.586 25.434 Q 25.258 25.434 24.982 25.554 L 24.982 25.554 L 24.982 25.554 Q 24.707 25.674 24.49 25.902 L 24.49 25.902 L 24.49 25.902 Q 24.273 26.131 24.13 26.471 L 24.13 26.471 L 24.13 26.471 Q 23.986 26.811 23.934 27.25 L 23.934 27.25 L 27.109 27.25 L 27.109 27.168 L 27.109 27.168 Q 27.092 26.852 27.007 26.541 L 27.007 26.541 L 27.007 26.541 Q 26.922 26.23 26.743 25.984 L 26.743 25.984 L 26.743 25.984 Q 26.564 25.738 26.283 25.586 L 26.283 25.586 L 26.283 25.586 Q 26.002 25.434 25.586 25.434 Z  M 29.834 23.125 L 30.918 23.125 L 30.918 24.66 L 32.102 24.66 L 32.102 25.498 L 30.918 25.498 L 30.918 29.43 L 30.918 29.43 Q 30.918 29.676 30.977 29.825 L 30.977 29.825 L 30.977 29.825 Q 31.035 29.975 31.132 30.057 L 31.132 30.057 L 31.132 30.057 Q 31.229 30.139 31.354 30.165 L 31.354 30.165 L 31.354 30.165 Q 31.48 30.191 31.615 30.191 L 31.615 30.191 L 31.615 30.191 Q 31.75 30.191 31.899 30.165 L 31.899 30.165 L 31.899 30.165 Q 32.049 30.139 32.131 30.121 L 32.131 30.121 L 32.131 31 L 32.131 31 Q 32.002 31.035 31.797 31.076 L 31.797 31.076 L 31.797 31.076 Q 31.592 31.117 31.299 31.117 L 31.299 31.117 L 31.299 31.117 Q 31 31.117 30.733 31.032 L 30.733 31.032 L 30.733 31.032 Q 30.467 30.947 30.268 30.748 L 30.268 30.748 L 30.268 30.748 Q 30.068 30.549 29.951 30.224 L 29.951 30.224 L 29.951 30.224 Q 29.834 29.898 29.834 29.424 L 29.834 29.424 L 29.834 25.498 L 28.68 25.498 L 28.68 24.66 L 29.834 24.66 L 29.834 23.125 L 29.834 23.125 Z  M 34.545 24.66 L 34.545 31 L 33.461 31 L 33.461 24.66 L 34.545 24.66 L 34.545 24.66 Z  M 33.373 22.979 L 33.373 22.979 L 33.373 22.979 Q 33.373 22.715 33.534 22.533 L 33.534 22.533 L 33.534 22.533 Q 33.695 22.352 34.012 22.352 L 34.012 22.352 L 34.012 22.352 Q 34.328 22.352 34.492 22.533 L 34.492 22.533 L 34.492 22.533 Q 34.656 22.715 34.656 22.979 L 34.656 22.979 L 34.656 22.979 Q 34.656 23.242 34.492 23.418 L 34.492 23.418 L 34.492 23.418 Q 34.328 23.594 34.012 23.594 L 34.012 23.594 L 34.012 23.594 Q 33.695 23.594 33.534 23.418 L 33.534 23.418 L 33.534 23.418 Q 33.373 23.242 33.373 22.979 Z  M 38.822 30.232 L 38.822 30.232 L 38.822 30.232 Q 39.109 30.232 39.373 30.139 L 39.373 30.139 L 39.373 30.139 Q 39.637 30.045 39.839 29.881 L 39.839 29.881 L 39.839 29.881 Q 40.041 29.717 40.167 29.491 L 40.167 29.491 L 40.167 29.491 Q 40.293 29.266 40.316 29.002 L 40.316 29.002 L 41.342 29.002 L 41.342 29.002 Q 41.318 29.424 41.11 29.808 L 41.11 29.808 L 41.11 29.808 Q 40.902 30.191 40.563 30.481 L 40.563 30.481 L 40.563 30.481 Q 40.223 30.771 39.774 30.944 L 39.774 30.944 L 39.774 30.944 Q 39.326 31.117 38.822 31.117 L 38.822 31.117 L 38.822 31.117 Q 38.107 31.117 37.577 30.862 L 37.577 30.862 L 37.577 30.862 Q 37.047 30.607 36.695 30.174 L 36.695 30.174 L 36.695 30.174 Q 36.344 29.74 36.171 29.166 L 36.171 29.166 L 36.171 29.166 Q 35.998 28.592 35.998 27.953 L 35.998 27.953 L 35.998 27.707 L 35.998 27.707 Q 35.998 27.068 36.171 26.494 L 36.171 26.494 L 36.171 26.494 Q 36.344 25.92 36.695 25.486 L 36.695 25.486 L 36.695 25.486 Q 37.047 25.053 37.574 24.798 L 37.574 24.798 L 37.574 24.798 Q 38.102 24.543 38.816 24.543 L 38.816 24.543 L 38.816 24.543 Q 39.373 24.543 39.827 24.719 L 39.827 24.719 L 39.827 24.719 Q 40.281 24.895 40.612 25.202 L 40.612 25.202 L 40.612 25.202 Q 40.943 25.51 41.131 25.932 L 41.131 25.932 L 41.131 25.932 Q 41.318 26.354 41.342 26.84 L 41.342 26.84 L 40.316 26.84 L 40.316 26.84 Q 40.293 26.547 40.179 26.292 L 40.179 26.292 L 40.179 26.292 Q 40.064 26.037 39.871 25.847 L 39.871 25.847 L 39.871 25.847 Q 39.678 25.656 39.411 25.545 L 39.411 25.545 L 39.411 25.545 Q 39.145 25.434 38.816 25.434 L 38.816 25.434 L 38.816 25.434 Q 38.313 25.434 37.981 25.633 L 37.981 25.633 L 37.981 25.633 Q 37.65 25.832 37.448 26.157 L 37.448 26.157 L 37.448 26.157 Q 37.246 26.482 37.164 26.89 L 37.164 26.89 L 37.164 26.89 Q 37.082 27.297 37.082 27.707 L 37.082 27.707 L 37.082 27.953 L 37.082 27.953 Q 37.082 28.375 37.164 28.782 L 37.164 28.782 L 37.164 28.782 Q 37.246 29.189 37.445 29.512 L 37.445 29.512 L 37.445 29.512 Q 37.645 29.834 37.979 30.033 L 37.979 30.033 L 37.979 30.033 Q 38.313 30.232 38.822 30.232 Z  M 46.252 29.318 L 46.252 29.318 L 46.252 29.318 Q 46.252 29.143 46.199 28.987 L 46.199 28.987 L 46.199 28.987 Q 46.146 28.832 45.991 28.694 L 45.991 28.694 L 45.991 28.694 Q 45.836 28.557 45.549 28.439 L 45.549 28.439 L 45.549 28.439 Q 45.262 28.322 44.793 28.223 L 44.793 28.223 L 44.793 28.223 Q 44.266 28.111 43.844 27.959 L 43.844 27.959 L 43.844 27.959 Q 43.422 27.807 43.126 27.593 L 43.126 27.593 L 43.126 27.593 Q 42.83 27.379 42.672 27.086 L 42.672 27.086 L 42.672 27.086 Q 42.514 26.793 42.514 26.4 L 42.514 26.4 L 42.514 26.4 Q 42.514 26.025 42.681 25.688 L 42.681 25.688 L 42.681 25.688 Q 42.848 25.352 43.152 25.097 L 43.152 25.097 L 43.152 25.097 Q 43.457 24.842 43.891 24.692 L 43.891 24.692 L 43.891 24.692 Q 44.324 24.543 44.857 24.543 L 44.857 24.543 L 44.857 24.543 Q 45.426 24.543 45.874 24.698 L 45.874 24.698 L 45.874 24.698 Q 46.322 24.854 46.636 25.123 L 46.636 25.123 L 46.636 25.123 Q 46.949 25.393 47.113 25.753 L 47.113 25.753 L 47.113 25.753 Q 47.277 26.113 47.277 26.523 L 47.277 26.523 L 46.188 26.523 L 46.188 26.523 Q 46.188 26.33 46.1 26.134 L 46.1 26.134 L 46.1 26.134 Q 46.012 25.938 45.842 25.782 L 45.842 25.782 L 45.842 25.782 Q 45.672 25.627 45.426 25.53 L 45.426 25.53 L 45.426 25.53 Q 45.18 25.434 44.857 25.434 L 44.857 25.434 L 44.857 25.434 Q 44.518 25.434 44.28 25.513 L 44.28 25.513 L 44.28 25.513 Q 44.043 25.592 43.891 25.724 L 43.891 25.724 L 43.891 25.724 Q 43.738 25.855 43.668 26.022 L 43.668 26.022 L 43.668 26.022 Q 43.598 26.189 43.598 26.365 L 43.598 26.365 L 43.598 26.365 Q 43.598 26.541 43.656 26.682 L 43.656 26.682 L 43.656 26.682 Q 43.715 26.822 43.879 26.937 L 43.879 26.937 L 43.879 26.937 Q 44.043 27.051 44.327 27.147 L 44.327 27.147 L 44.327 27.147 Q 44.611 27.244 45.063 27.344 L 45.063 27.344 L 45.063 27.344 Q 45.643 27.479 46.07 27.648 L 46.07 27.648 L 46.07 27.648 Q 46.498 27.818 46.779 28.044 L 46.779 28.044 L 46.779 28.044 Q 47.061 28.27 47.198 28.563 L 47.198 28.563 L 47.198 28.563 Q 47.336 28.855 47.336 29.242 L 47.336 29.242 L 47.336 29.242 Q 47.336 29.658 47.163 30.004 L 47.163 30.004 L 47.163 30.004 Q 46.99 30.35 46.668 30.596 L 46.668 30.596 L 46.668 30.596 Q 46.346 30.842 45.895 30.979 L 45.895 30.979 L 45.895 30.979 Q 45.443 31.117 44.893 31.117 L 44.893 31.117 L 44.893 31.117 Q 44.26 31.117 43.776 30.941 L 43.776 30.941 L 43.776 30.941 Q 43.293 30.766 42.965 30.476 L 42.965 30.476 L 42.965 30.476 Q 42.637 30.186 42.467 29.813 L 42.467 29.813 L 42.467 29.813 Q 42.297 29.441 42.297 29.049 L 42.297 29.049 L 43.381 29.049 L 43.381 29.049 Q 43.398 29.383 43.542 29.608 L 43.542 29.608 L 43.542 29.608 Q 43.686 29.834 43.902 29.975 L 43.902 29.975 L 43.902 29.975 Q 44.119 30.115 44.377 30.174 L 44.377 30.174 L 44.377 30.174 Q 44.635 30.232 44.893 30.232 L 44.893 30.232 L 44.893 30.232 Q 45.227 30.232 45.479 30.162 L 45.479 30.162 L 45.479 30.162 Q 45.73 30.092 45.903 29.969 L 45.903 29.969 L 45.903 29.969 Q 46.076 29.846 46.164 29.679 L 46.164 29.679 L 46.164 29.679 Q 46.252 29.512 46.252 29.318 Z " fill-rule="evenodd" fill="rgb(96,96,96)"/></g></g></g></g></svg>