<svg xmlns="http://www.w3.org/2000/svg" xmlns:xlink="http://www.w3.org/1999/xlink" viewBox="0 0 20 18">
  <defs>
    <style>
      .cls-1 {
        clip-path: url(#clip-Camera_Icon_Active);
      }

      .cls-2 {
        fill: #012395;
      }

      .cls-3 {
        fill: rgba(255,255,255,0);
      }
    </style>
    <clipPath id="clip-Camera_Icon_Active">
      <rect width="20" height="18"/>
    </clipPath>
  </defs>
  <g id="Camera_Icon_Active" data-name="Camera Icon Active" class="cls-1">
    <rect class="cls-3" width="20" height="18"/>
    <circle id="Ellipse_18" data-name="Ellipse 18" class="cls-2" cx="3.2" cy="3.2" r="3.2" transform="translate(6.8 6.8)"/>
    <path id="Path_92" data-name="Path 92" class="cls-2" d="M9,2,7.17,4H4A2.006,2.006,0,0,0,2,6V18a2.006,2.006,0,0,0,2,2H20a2.006,2.006,0,0,0,2-2V6a2.006,2.006,0,0,0-2-2H16.83L15,2Zm3,15a5,5,0,1,1,5-5A5,5,0,0,1,12,17Z" transform="translate(-2 -2)"/>
  </g>
</svg>
