<?xml version="1.0" standalone="no"?><!-- Generator: Gravit.io --><svg xmlns="http://www.w3.org/2000/svg" xmlns:xlink="http://www.w3.org/1999/xlink" style="isolation:isolate" viewBox="0 0 33 32" width="33" height="32"><defs><clipPath id="_clipPath_a8m6tQ5uC1VPhhf5ZwdcbgfV1qo33whR"><rect width="33" height="32"/></clipPath></defs><g clip-path="url(#_clipPath_a8m6tQ5uC1VPhhf5ZwdcbgfV1qo33whR)"><clipPath id="_clipPath_p2Taao6vxFbBWeNEg1eO5sqvGtulfgvp"><rect x="0" y="0" width="33" height="32" transform="matrix(1,0,0,1,0,0)" fill="rgb(255,255,255)"/></clipPath><g clip-path="url(#_clipPath_p2Taao6vxFbBWeNEg1eO5sqvGtulfgvp)"><g id="Home_Icon_Active"><rect x="0" y="0" width="33" height="32" transform="matrix(1,0,0,1,0,0)" fill="none"/><g id="Group_4080"><path d=" M 7.547 22.469 L 7.547 31 L 6.416 31 L 6.416 27.057 L 2.115 27.057 L 2.115 31 L 0.99 31 L 0.99 22.469 L 2.115 22.469 L 2.115 26.137 L 6.416 26.137 L 6.416 22.469 L 7.547 22.469 Z  M 9.088 27.9 L 9.088 27.771 L 9.088 27.771 Q 9.088 27.08 9.29 26.491 L 9.29 26.491 L 9.29 26.491 Q 9.492 25.902 9.864 25.469 L 9.864 25.469 L 9.864 25.469 Q 10.236 25.035 10.77 24.789 L 10.77 24.789 L 10.77 24.789 Q 11.303 24.543 11.965 24.543 L 11.965 24.543 L 11.965 24.543 Q 12.639 24.543 13.175 24.789 L 13.175 24.789 L 13.175 24.789 Q 13.711 25.035 14.086 25.469 L 14.086 25.469 L 14.086 25.469 Q 14.461 25.902 14.66 26.491 L 14.66 26.491 L 14.66 26.491 Q 14.859 27.08 14.859 27.771 L 14.859 27.771 L 14.859 27.9 L 14.859 27.9 Q 14.859 28.592 14.66 29.181 L 14.66 29.181 L 14.66 29.181 Q 14.461 29.77 14.086 30.2 L 14.086 30.2 L 14.086 30.2 Q 13.711 30.631 13.178 30.874 L 13.178 30.874 L 13.178 30.874 Q 12.645 31.117 11.977 31.117 L 11.977 31.117 L 11.977 31.117 Q 11.309 31.117 10.775 30.874 L 10.775 30.874 L 10.775 30.874 Q 10.242 30.631 9.867 30.2 L 9.867 30.2 L 9.867 30.2 Q 9.492 29.77 9.29 29.181 L 9.29 29.181 L 9.29 29.181 Q 9.088 28.592 9.088 27.9 L 9.088 27.9 Z  M 10.178 27.771 L 10.178 27.9 L 10.178 27.9 Q 10.178 28.375 10.289 28.797 L 10.289 28.797 L 10.289 28.797 Q 10.4 29.219 10.626 29.538 L 10.626 29.538 L 10.626 29.538 Q 10.852 29.857 11.188 30.045 L 11.188 30.045 L 11.188 30.045 Q 11.525 30.232 11.977 30.232 L 11.977 30.232 L 11.977 30.232 Q 12.422 30.232 12.762 30.045 L 12.762 30.045 L 12.762 30.045 Q 13.102 29.857 13.324 29.538 L 13.324 29.538 L 13.324 29.538 Q 13.547 29.219 13.661 28.797 L 13.661 28.797 L 13.661 28.797 Q 13.775 28.375 13.775 27.9 L 13.775 27.9 L 13.775 27.771 L 13.775 27.771 Q 13.775 27.303 13.661 26.878 L 13.661 26.878 L 13.661 26.878 Q 13.547 26.453 13.321 26.134 L 13.321 26.134 L 13.321 26.134 Q 13.096 25.814 12.756 25.624 L 12.756 25.624 L 12.756 25.624 Q 12.416 25.434 11.965 25.434 L 11.965 25.434 L 11.965 25.434 Q 11.52 25.434 11.186 25.624 L 11.186 25.624 L 11.186 25.624 Q 10.852 25.814 10.626 26.134 L 10.626 26.134 L 10.626 26.134 Q 10.4 26.453 10.289 26.878 L 10.289 26.878 L 10.289 26.878 Q 10.178 27.303 10.178 27.771 L 10.178 27.771 Z  M 16.213 24.66 L 17.238 24.66 L 17.268 25.363 L 17.268 25.363 Q 17.596 24.977 18.062 24.76 L 18.062 24.76 L 18.062 24.76 Q 18.527 24.543 19.148 24.543 L 19.148 24.543 L 19.148 24.543 Q 19.764 24.543 20.235 24.786 L 20.235 24.786 L 20.235 24.786 Q 20.707 25.029 20.959 25.563 L 20.959 25.563 L 20.959 25.563 Q 21.275 25.105 21.782 24.824 L 21.782 24.824 L 21.782 24.824 Q 22.289 24.543 22.98 24.543 L 22.98 24.543 L 22.98 24.543 Q 23.49 24.543 23.883 24.675 L 23.883 24.675 L 23.883 24.675 Q 24.275 24.807 24.548 25.088 L 24.548 25.088 L 24.548 25.088 Q 24.82 25.369 24.961 25.803 L 24.961 25.803 L 24.961 25.803 Q 25.102 26.236 25.102 26.834 L 25.102 26.834 L 25.102 31 L 24.018 31 L 24.018 26.828 L 24.018 26.828 Q 24.018 26.43 23.921 26.166 L 23.921 26.166 L 23.921 26.166 Q 23.824 25.902 23.648 25.744 L 23.648 25.744 L 23.648 25.744 Q 23.473 25.586 23.221 25.524 L 23.221 25.524 L 23.221 25.524 Q 22.969 25.463 22.664 25.463 L 22.664 25.463 L 22.664 25.463 Q 22.33 25.463 22.072 25.568 L 22.072 25.568 L 22.072 25.568 Q 21.814 25.674 21.63 25.853 L 21.63 25.853 L 21.63 25.853 Q 21.445 26.031 21.337 26.274 L 21.337 26.274 L 21.337 26.274 Q 21.229 26.518 21.199 26.793 L 21.199 26.793 L 21.199 31 L 20.109 31 L 20.109 26.834 L 20.109 26.834 Q 20.109 26.465 20.013 26.204 L 20.013 26.204 L 20.013 26.204 Q 19.916 25.943 19.74 25.779 L 19.74 25.779 L 19.74 25.779 Q 19.564 25.615 19.315 25.539 L 19.315 25.539 L 19.315 25.539 Q 19.066 25.463 18.756 25.463 L 18.756 25.463 L 18.756 25.463 Q 18.176 25.463 17.824 25.715 L 17.824 25.715 L 17.824 25.715 Q 17.473 25.967 17.297 26.371 L 17.297 26.371 L 17.297 31 L 16.213 31 L 16.213 24.66 Z  M 29.367 31.117 L 29.367 31.117 L 29.367 31.117 Q 28.705 31.117 28.169 30.889 L 28.169 30.889 L 28.169 30.889 Q 27.633 30.66 27.252 30.253 L 27.252 30.253 L 27.252 30.253 Q 26.871 29.846 26.666 29.283 L 26.666 29.283 L 26.666 29.283 Q 26.461 28.721 26.461 28.053 L 26.461 28.053 L 26.461 27.807 L 26.461 27.807 Q 26.461 27.033 26.692 26.424 L 26.692 26.424 L 26.692 26.424 Q 26.924 25.814 27.311 25.398 L 27.311 25.398 L 27.311 25.398 Q 27.697 24.982 28.195 24.763 L 28.195 24.763 L 28.195 24.763 Q 28.693 24.543 29.232 24.543 L 29.232 24.543 L 29.232 24.543 Q 29.912 24.543 30.404 24.78 L 30.404 24.78 L 30.404 24.78 Q 30.896 25.018 31.216 25.434 L 31.216 25.434 L 31.216 25.434 Q 31.535 25.85 31.688 26.418 L 31.688 26.418 L 31.688 26.418 Q 31.84 26.986 31.84 27.654 L 31.84 27.654 L 31.84 28.141 L 27.545 28.141 L 27.545 28.141 Q 27.557 28.58 27.688 28.961 L 27.688 28.961 L 27.688 28.961 Q 27.82 29.342 28.063 29.623 L 28.063 29.623 L 28.063 29.623 Q 28.307 29.904 28.649 30.068 L 28.649 30.068 L 28.649 30.068 Q 28.992 30.232 29.426 30.232 L 29.426 30.232 L 29.426 30.232 Q 30 30.232 30.398 29.998 L 30.398 29.998 L 30.398 29.998 Q 30.797 29.764 31.096 29.377 L 31.096 29.377 L 31.758 29.893 L 31.758 29.893 Q 31.605 30.127 31.389 30.347 L 31.389 30.347 L 31.389 30.347 Q 31.172 30.566 30.882 30.739 L 30.882 30.739 L 30.882 30.739 Q 30.592 30.912 30.217 31.015 L 30.217 31.015 L 30.217 31.015 Q 29.842 31.117 29.367 31.117 Z  M 29.232 25.434 L 29.232 25.434 L 29.232 25.434 Q 28.904 25.434 28.629 25.554 L 28.629 25.554 L 28.629 25.554 Q 28.354 25.674 28.137 25.902 L 28.137 25.902 L 28.137 25.902 Q 27.92 26.131 27.776 26.471 L 27.776 26.471 L 27.776 26.471 Q 27.633 26.811 27.58 27.25 L 27.58 27.25 L 30.756 27.25 L 30.756 27.168 L 30.756 27.168 Q 30.738 26.852 30.653 26.541 L 30.653 26.541 L 30.653 26.541 Q 30.568 26.23 30.39 25.984 L 30.39 25.984 L 30.39 25.984 Q 30.211 25.738 29.93 25.586 L 29.93 25.586 L 29.93 25.586 Q 29.648 25.434 29.232 25.434 Z " fill-rule="evenodd" fill="rgb(1,35,149)"/><g id="Outline"><path d=" M 16.022 2.871 L 21.358 7.671 L 21.358 16.006 L 19.224 16.006 L 19.224 9.6 L 12.82 9.6 L 12.82 16 L 10.686 16 L 10.686 7.673 L 16.022 2.873 M 16.022 0.002 L 5.35 9.6 L 8.55 9.6 L 8.55 18.138 L 14.95 18.138 L 14.95 11.738 L 17.084 11.738 L 17.084 18.138 L 23.484 18.138 L 23.484 9.6 L 26.684 9.6 L 16.022 0 L 16.022 0.002 Z " fill="rgb(1,35,149)"/></g></g></g></g></g></svg>