<svg xmlns="http://www.w3.org/2000/svg" viewBox="0 0 18 21">
  <defs>
    <style>
      .cls-1 {
        fill: #012395;
      }
    </style>
  </defs>
  <path id="ic_local_florist_24px" class="cls-1" d="M12,22a9,9,0,0,0,9-9A9,9,0,0,0,12,22ZM5.6,10.25a2.5,2.5,0,0,0,3.92,2.06l-.02.19a2.5,2.5,0,0,0,5,0l-.02-.19a2.464,2.464,0,0,0,1.42.44A2.494,2.494,0,0,0,16.97,8a2.5,2.5,0,1,0-2.49-4.31l.02-.19a2.5,2.5,0,0,0-5,0l.02.19A2.464,2.464,0,0,0,8.1,3.25,2.494,2.494,0,0,0,7.03,8,2.491,2.491,0,0,0,5.6,10.25ZM12,5.5A2.5,2.5,0,1,1,9.5,8,2.5,2.5,0,0,1,12,5.5ZM3,13a9,9,0,0,0,9,9A9,9,0,0,0,3,13Z" transform="translate(-3 -1)"/>
</svg>
