<svg id="outline-local_grocery_store-24px" xmlns="http://www.w3.org/2000/svg" viewBox="0 0 24 24">
  <defs>
    <style>
      .cls-1 {
        fill: none;
      }

      .cls-2 {
        fill: #012395;
      }
    </style>
  </defs>
  <g id="Bounding_Boxes">
    <path id="Path_114" data-name="Path 114" class="cls-1" d="M0,0H24V24H0Z"/>
  </g>
  <g id="Outline">
    <g id="Group_364" data-name="Group 364">
      <path id="Path_115" data-name="Path 115" class="cls-2" d="M7,18a2,2,0,1,0,2,2A2,2,0,0,0,7,18Z"/>
      <path id="Path_116" data-name="Path 116" class="cls-2" d="M17,18a2,2,0,1,0,2,2A2,2,0,0,0,17,18Z"/>
      <path id="Path_117" data-name="Path 117" class="cls-2" d="M15.55,13a1.991,1.991,0,0,0,1.75-1.03l3.58-6.49A1,1,0,0,0,20.01,4H5.21L4.27,2H1V4H3l3.6,7.59L5.25,14.03A2,2,0,0,0,7,17H19V15H7l1.1-2ZM6.16,6H18.31l-2.76,5H8.53Z"/>
    </g>
  </g>
</svg>
