<svg xmlns="http://www.w3.org/2000/svg" xmlns:xlink="http://www.w3.org/1999/xlink" viewBox="0 0 26.699 26.699">
  <defs>
    <style>
      .cls-1 {
        clip-path: url(#clip-path);
      }

      .cls-2 {
        fill: #012395;
      }

      .cls-3 {
        fill: none;
      }

      .cls-4 {
        fill: #fff;
      }
    </style>
    <clipPath id="clip-path">
      <rect id="Rectangle_241" data-name="Rectangle 241" width="26.699" height="26.699"/>
    </clipPath>
  </defs>
  <g id="outline-mood-24px" class="cls-1">
    <path id="Path_118" data-name="Path 118" class="cls-2" d="M3,13.012A10.012,10.012,0,1,1,13.012,23.025,10.017,10.017,0,0,1,3,13.012Z" transform="translate(0.337 0.337)"/>
    <g id="Bounding_Boxes">
      <path id="Path_119" data-name="Path 119" class="cls-3" d="M0,0H26.7V26.7H0Z"/>
    </g>
    <g id="Outline" transform="translate(7.665 8.9)">
      <path id="Path_120" data-name="Path 120" class="cls-4" d="M12.564,23.575m3.9-12.237A1.669,1.669,0,1,0,14.8,9.669,1.666,1.666,0,0,0,16.468,11.337Zm-3.894,7.231a6.114,6.114,0,0,0,5.685-3.894H6.89A6.114,6.114,0,0,0,12.575,18.569Z" transform="translate(-6.89 -8)"/>
    </g>
    <path id="Path_121" data-name="Path 121" class="cls-4" d="M7,9.669a1.669,1.669,0,1,1,1.669,1.669A1.669,1.669,0,0,1,7,9.669Z" transform="translate(0.787 0.9)"/>
    <path id="Path_122" data-name="Path 122" class="cls-4" d="M14,9.669a1.669,1.669,0,1,1,1.669,1.669A1.669,1.669,0,0,1,14,9.669Z" transform="translate(1.575 0.9)"/>
  </g>
</svg>
