<svg id="outline-photo_camera-24px" xmlns="http://www.w3.org/2000/svg" viewBox="0 0 24 24">
  <defs>
    <style>
      .cls-1 {
        fill: none;
      }

      .cls-2 {
        fill: #012395;
      }
    </style>
  </defs>
  <g id="Bounding_Boxes">
    <path id="Path_123" data-name="Path 123" class="cls-1" d="M0,0H24V24H0Z"/>
  </g>
  <g id="Outline">
    <g id="Group_365" data-name="Group 365">
      <path id="XMLID_34_" class="cls-2" d="M14.12,4l1.83,2H20V18H4V6H8.05L9.88,4h4.24M15,2H9L7.17,4H4A2.006,2.006,0,0,0,2,6V18a2.006,2.006,0,0,0,2,2H20a2.006,2.006,0,0,0,2-2V6a2.006,2.006,0,0,0-2-2H16.83L15,2Z"/>
      <path id="XMLID_31_" class="cls-2" d="M12,9a3,3,0,1,1-3,3,3.009,3.009,0,0,1,3-3m0-2a5,5,0,1,0,5,5,5,5,0,0,0-5-5Z"/>
    </g>
  </g>
</svg>
